# xmcd CD database file
# Copyright (C) 1993-1998 Ti Kan
#
# Track frame offsets:
#  200
#  13210
#  28252
#  44562
#  62052
#  81660
#  98882
#  119830
#
# Disc length: 1779 seconds
#
# Revision: 1
# Processed by: cddbd v1.4b41PL1 Copyright (c) Steve Scherf et al.
# Submitted via: KiC 2.1 - (C) 1996-1998 Alwin Hoogerdijk
#
DISCID=7706f108
DTITLE=King Konga - Last Laugh
DYEAR=1900
DGENRE=
TTITLE0=Sidewalk Groove
TTITLE1=Little Piece of Heaven
TTITLE2=Addicted to You
TTITLE3=Same But Different Blues
TTITLE4=The Jealous Kind
TTITLE5=Talkin' Loud
TTITLE6=Drift Away
TTITLE7=Time Is Out
EXTD=
EXTT0=
EXTT1=
EXTT2=
EXTT3=
EXTT4=
EXTT5=
EXTT6=
EXTT7=
PLAYORDER=
